<?xml version="1.0" encoding="UTF-8" standalone="no"?>
<!-- Created with Inkscape (http://www.inkscape.org/) -->

<svg
   xmlns:dc="http://purl.org/dc/elements/1.1/"
   xmlns:cc="http://creativecommons.org/ns#"
   xmlns:rdf="http://www.w3.org/1999/02/22-rdf-syntax-ns#"
   xmlns:svg="http://www.w3.org/2000/svg"
   xmlns="http://www.w3.org/2000/svg"
   xmlns:sodipodi="http://sodipodi.sourceforge.net/DTD/sodipodi-0.dtd"
   xmlns:inkscape="http://www.inkscape.org/namespaces/inkscape"
   width="49.018784mm"
   height="12.992937mm"
   viewBox="0 0 39.215028 10.394349"
   version="1.1"
   id="svg4709"
   inkscape:version="0.92.1 r15371"
   sodipodi:docname="cl_logo.svg">
  <defs
     id="defs4703" />
  <sodipodi:namedview
     id="base"
     pagecolor="#ffffff"
     bordercolor="#666666"
     borderopacity="1.0"
     inkscape:pageopacity="0.0"
     inkscape:pageshadow="2"
     inkscape:zoom="1.979899"
     inkscape:cx="12.425999"
     inkscape:cy="-46.619777"
     inkscape:document-units="mm"
     inkscape:current-layer="text4569"
     showgrid="false"
     inkscape:window-width="1920"
     inkscape:window-height="1001"
     inkscape:window-x="-9"
     inkscape:window-y="-9"
     inkscape:window-maximized="1"
     showborder="false"
     fit-margin-top="0"
     fit-margin-left="0"
     fit-margin-right="0"
     fit-margin-bottom="0"
     scale-x="0.8" />
  <metadata
     id="metadata4706">
    <rdf:RDF>
      <cc:Work
         rdf:about="">
        <dc:format>image/svg+xml</dc:format>
        <dc:type
           rdf:resource="http://purl.org/dc/dcmitype/StillImage" />
        <dc:title></dc:title>
      </cc:Work>
    </rdf:RDF>
  </metadata>
  <g
     inkscape:label="Layer 1"
     inkscape:groupmode="layer"
     id="layer1"
     transform="translate(-54.346912,-115.57285)">
    <g
       id="g5297"
       style="opacity:0.98000004">
      <path
         id="rect4631"
         d="M 54.346912,115.57285 H 93.561939 V 125.9672 H 54.346912 Z"
         style="display:inline;fill:#ffd42a;fill-opacity:1;stroke:none;stroke-width:1.91284227;stroke-linejoin:miter;stroke-miterlimit:4;stroke-dasharray:none;stroke-opacity:1"
         inkscape:connector-curvature="0" />
      <g
         id="text4569"
         style="font-style:normal;font-variant:normal;font-weight:normal;font-stretch:normal;font-size:7.84375334px;line-height:1.25;font-family:'Segoe UI';-inkscape-font-specification:'Segoe UI';letter-spacing:0px;word-spacing:0px;display:inline;fill:#000000;fill-opacity:1;stroke:none;stroke-width:0.19609383"
         aria-label="codingLog">
        <path
           id="path5266"
           style="fill:#000000;fill-opacity:1;stroke-width:0.19609383"
           d="m 58.835653,122.5701 q -0.451935,0.27193 -1.072388,0.27193 -0.838761,0 -1.355805,-0.54386 -0.513215,-0.54768 -0.513215,-1.41708 0,-0.96898 0.555344,-1.55497 0.555344,-0.58981 1.482194,-0.58981 0.517044,0 0.91153,0.1915 v 0.64343 q -0.436615,-0.30639 -0.93451,-0.30639 -0.601303,0 -0.988129,0.43278 -0.382996,0.42896 -0.382996,1.12984 0,0.68939 0.360016,1.08771 0.363846,0.39831 0.972809,0.39831 0.513215,0 0.96515,-0.34086 z"
           inkscape:connector-curvature="0" />
        <path
           id="path5268"
           style="fill:#000000;fill-opacity:1;stroke-width:0.19609383"
           d="m 61.432364,122.84203 q -0.8694,0 -1.390275,-0.54769 -0.517044,-0.55151 -0.517044,-1.45921 0,-0.98813 0.540024,-1.54347 0.540024,-0.55535 1.459214,-0.55535 0.87706,0 1.367295,0.54003 0.494064,0.54002 0.494064,1.49751 0,0.93834 -0.532364,1.50517 -0.528534,0.56301 -1.420914,0.56301 z m 0.04596,-3.57718 q -0.605133,0 -0.957489,0.41363 -0.352356,0.40981 -0.352356,1.13367 0,0.69705 0.356186,1.0992 0.356186,0.40214 0.953659,0.40214 0.608964,0 0.93451,-0.39448 0.329377,-0.39449 0.329377,-1.12218 0,-0.73535 -0.329377,-1.13367 -0.325546,-0.39831 -0.93451,-0.39831 z"
           inkscape:connector-curvature="0" />
        <path
           id="path5270"
           style="fill:#000000;fill-opacity:1;stroke-width:0.19609383"
           d="m 67.736475,122.75011 h -0.628113 v -0.66642 h -0.01532 q -0.436615,0.75834 -1.348145,0.75834 -0.739182,0 -1.183457,-0.52471 -0.440445,-0.52853 -0.440445,-1.43623 0,-0.97281 0.490234,-1.5588 0.490235,-0.58598 1.306016,-0.58598 0.808121,0 1.175797,0.63577 h 0.01532 v -2.42819 h 0.628113 z m -0.628113,-1.77327 v -0.57833 q 0,-0.47491 -0.314057,-0.80429 -0.314056,-0.32937 -0.796631,-0.32937 -0.574494,0 -0.90387,0.42129 -0.329376,0.4213 -0.329376,1.16431 0,0.6779 0.314056,1.07239 0.317887,0.39065 0.850251,0.39065 0.524704,0 0.85025,-0.37916 0.329377,-0.37917 0.329377,-0.95749 z"
           inkscape:connector-curvature="0" />
        <path
           id="path5272"
           style="fill:#000000;fill-opacity:1;stroke-width:0.19609383"
           d="m 69.337397,117.83244 q -0.168518,0 -0.287247,-0.1149 -0.118728,-0.1149 -0.118728,-0.29107 0,-0.17618 0.118728,-0.29108 0.118729,-0.11873 0.287247,-0.11873 0.172348,0 0.291077,0.11873 0.122558,0.1149 0.122558,0.29108 0,0.16851 -0.122558,0.28724 -0.118729,0.11873 -0.291077,0.11873 z m 0.306397,4.91767 h -0.628113 v -3.92188 h 0.628113 z"
           inkscape:connector-curvature="0" />
        <path
           id="path5274"
           style="fill:#000000;fill-opacity:1;stroke-width:0.19609383"
           d="M 74.170803,122.75011 H 73.54269 v -2.2367 q 0,-1.24856 -0.91153,-1.24856 -0.471085,0 -0.781312,0.35618 -0.306396,0.35236 -0.306396,0.89238 v 2.2367 h -0.628113 v -3.92188 h 0.628113 v 0.65109 h 0.01532 q 0.444275,-0.74301 1.286865,-0.74301 0.643433,0 0.9843,0.41747 0.340866,0.41363 0.340866,1.19877 z"
           inkscape:connector-curvature="0" />
        <path
           id="path5276"
           style="fill:#000000;fill-opacity:1;stroke-width:0.19609383"
           d="m 78.705473,122.43605 q 0,2.1601 -2.068177,2.1601 -0.727692,0 -1.271546,-0.27576 v -0.62811 q 0.662582,0.36767 1.263886,0.36767 1.447724,0 1.447724,-1.53964 v -0.42896 h -0.01532 q -0.448105,0.75068 -1.348145,0.75068 -0.731522,0 -1.179627,-0.52088 -0.444275,-0.5247 -0.444275,-1.40559 0,-0.99962 0.478744,-1.58944 0.482575,-0.58981 1.317506,-0.58981 0.792801,0 1.175797,0.63577 h 0.01532 v -0.54385 h 0.628113 z m -0.628113,-1.45921 v -0.57833 q 0,-0.46725 -0.317887,-0.80046 -0.314056,-0.3332 -0.785141,-0.3332 -0.582154,0 -0.91153,0.42512 -0.329376,0.4213 -0.329376,1.18346 0,0.65492 0.314056,1.04941 0.317887,0.39065 0.838761,0.39065 0.528534,0 0.85791,-0.37533 0.333207,-0.37534 0.333207,-0.96132 z"
           inkscape:connector-curvature="0" />
        <path
           id="path5278"
           style="font-style:normal;font-variant:normal;font-weight:600;font-stretch:normal;font-family:'Segoe UI';-inkscape-font-specification:'Segoe UI Semi-Bold';fill:#000000;fill-opacity:1;stroke-width:0.19609383"
           d="m 83.067794,122.75011 h -3.040986 v -5.49216 h 0.91153 v 4.72234 h 2.129456 z"
           inkscape:connector-curvature="0" />
        <path
           id="path5280"
           style="font-style:normal;font-variant:normal;font-weight:600;font-stretch:normal;font-family:'Segoe UI';-inkscape-font-specification:'Segoe UI Semi-Bold';fill:#000000;fill-opacity:1;stroke-width:0.19609383"
           d="m 85.495988,122.84203 q -0.9077,0 -1.451554,-0.54769 -0.540024,-0.55151 -0.540024,-1.45921 0,-0.98813 0.563004,-1.54347 0.566833,-0.55535 1.524323,-0.55535 0.91919,0 1.432404,0.54003 0.513214,0.54002 0.513214,1.49751 0,0.93834 -0.555343,1.50517 -0.551514,0.56301 -1.486024,0.56301 z m 0.04213,-3.39718 q -0.520874,0 -0.82344,0.36385 -0.302567,0.36385 -0.302567,1.00345 0,0.61662 0.306397,0.97281 0.306396,0.35235 0.81961,0.35235 0.524705,0 0.804292,-0.34852 0.283416,-0.34853 0.283416,-0.99196 0,-0.64726 -0.283416,-0.99962 -0.279587,-0.35236 -0.804292,-0.35236 z"
           inkscape:connector-curvature="0" />
        <path
           id="path5282"
           style="font-style:normal;font-variant:normal;font-weight:600;font-stretch:normal;font-family:'Segoe UI';-inkscape-font-specification:'Segoe UI Semi-Bold';fill:#000000;fill-opacity:1;stroke-width:0.19609383"
           d="m 92.014578,122.43605 q 0,2.1601 -2.171586,2.1601 -0.765992,0 -1.336656,-0.25661 v -0.81195 q 0.643433,0.36767 1.221757,0.36767 1.397935,0 1.397935,-1.37495 v -0.42896 h -0.01532 q -0.440445,0.75068 -1.325166,0.75068 -0.716202,0 -1.156647,-0.52088 -0.436615,-0.5247 -0.436615,-1.40559 0,-0.99962 0.471085,-1.58944 0.471085,-0.58981 1.294525,-0.58981 0.777482,0 1.152818,0.63577 h 0.01532 v -0.54385 h 0.88855 z m -0.880891,-1.48219 v -0.50939 q 0,-0.41363 -0.275756,-0.70471 -0.271927,-0.29491 -0.681733,-0.29491 -0.505554,0 -0.792801,0.37534 -0.283417,0.37151 -0.283417,1.04175 0,0.57832 0.271927,0.92685 0.275757,0.34469 0.727692,0.34469 0.459595,0 0.746842,-0.32937 0.287246,-0.33321 0.287246,-0.85025 z"
           inkscape:connector-curvature="0" />
      </g>
    </g>
  </g>
</svg>
